<?xml version="1.0" encoding="UTF-8"?>
<svg width="100" height="100" version="1.1" viewBox="0 0 26.5 26.5" xmlns="http://www.w3.org/2000/svg">
	<g transform="translate(-29.9 -17.9)">
		<g transform="matrix(.38 0 0 .38 16 -27.8)">
			<path d="m37.2 154q0-0.87-0.058-1.62 0-0.754 0-1.45h1.74l0.058 1.91h0.058q0.406-0.986 1.22-1.51 0.812-0.58 1.8-0.58 0.174 0 0.29 0 0.174 0 0.29 0.058v1.62q-0.174 0-0.348 0-0.116-0.058-0.348-0.058-1.04 0-1.74 0.638-0.696 0.638-0.87 1.62-0.058 0.232-0.116 0.464 0 0.174 0 0.406v5.16h-1.97zm8.23 2.14q0.058 1.8 1.16 2.61 1.1 0.754 2.61 0.754 1.04 0 1.74-0.116 0.754-0.174 1.28-0.406l0.348 1.28q-0.522 0.232-1.45 0.464-0.87 0.174-2.2 0.174-2.49 0-3.94-1.33-1.39-1.39-1.39-3.59 0-2.2 1.33-3.71 1.39-1.51 3.77-1.51 2.67 0 3.59 1.62 0.928 1.57 0.928 2.96 0 0.232-0.058 0.464 0 0.174 0 0.348h-7.71zm5.86-1.28q0-0.87-0.58-1.86-0.522-1.04-2.2-1.04-1.51 0-2.2 0.986-0.696 0.986-0.812 1.91zm3.59 4.75q0-0.522 0.406-0.87 0.406-0.406 0.986-0.406 0.58 0 0.928 0.406 0.406 0.348 0.406 0.87 0 0.58-0.406 0.928-0.348 0.348-0.986 0.348-0.58 0-0.986-0.348-0.348-0.348-0.348-0.928zm27.3-7.59q-1.74 0-2.55 1.22-0.812 1.22-0.812 2.61 0 1.57 0.928 2.67 0.986 1.04 2.43 1.04 1.39 0 2.32-1.04 0.986-1.1 0.986-2.72 0-1.22-0.754-2.49-0.754-1.28-2.55-1.28zm-43.6 13.7v2.84h2.9v1.39h-2.9v5.45q0 0.928 0.29 1.45 0.348 0.464 1.22 0.464 0.406 0 0.696 0 0.29-0.058 0.464-0.116l0.116 1.39q-0.29 0.058-0.754 0.174-0.464 0.058-1.04 0.058-0.696 0-1.28-0.174-0.58-0.232-0.928-0.58-0.464-0.406-0.638-1.04-0.174-0.696-0.174-1.57v-9.28l2.03-0.464zm6.2 8.23q0.058 1.8 1.16 2.67 1.16 0.812 2.67 0.812 1.1 0 1.8-0.174 0.754-0.174 1.33-0.348l0.348 1.28q-0.522 0.232-1.45 0.464-0.928 0.174-2.26 0.174-2.61 0-4.12-1.39-1.45-1.39-1.45-3.65 0-2.26 1.39-3.83 1.45-1.57 3.88-1.57 2.78 0 3.71 1.68 0.928 1.62 0.928 3.01 0 0.29-0.058 0.522 0 0.174 0 0.348zm5.97-1.33q0.058-0.87-0.522-1.91-0.58-1.04-2.32-1.04-1.51 0-2.26 1.04-0.754 0.986-0.87 1.91zm5.39-4.06 1.62 2.2q0.29 0.406 0.58 0.812 0.29 0.406 0.522 0.812h0.116q0.232-0.464 0.522-0.87 0.29-0.406 0.58-0.812l1.57-2.14h2.2l-3.83 4.87 3.94 5.16h-2.32l-1.62-2.26q-0.348-0.406-0.638-0.812-0.29-0.464-0.58-0.928h-0.058q-0.29 0.464-0.58 0.928-0.29 0.406-0.58 0.812l-1.62 2.26h-2.26l4-5.1-3.83-4.93zm12.6-2.84v2.84h2.9v1.39h-2.9v5.45q0 0.928 0.348 1.45 0.348 0.464 1.16 0.464 0.406 0 0.696 0 0.29-0.058 0.522-0.116l0.058 1.39q-0.29 0.058-0.754 0.174-0.464 0.058-1.04 0.058-0.696 0-1.28-0.174-0.58-0.232-0.928-0.58-0.406-0.406-0.638-1.04-0.174-0.696-0.174-1.57v-5.51h-1.74v-1.39h1.74v-2.38l2.03-0.464zm17.2 12.5q-0.406 0.174-1.28 0.406-0.812 0.174-1.97 0.174-2.55 0-4.06-1.39-1.51-1.45-1.51-3.71 0-2.32 1.62-3.83 1.62-1.51 4.41-1.51 0.928 0 1.68 0.174 0.754 0.174 1.16 0.348l-0.464 1.39q-0.406-0.174-0.986-0.29-0.58-0.174-1.39-0.174-1.91 0-2.96 1.1t-1.04 2.67q0 1.74 1.1 2.78 1.16 0.986 2.84 0.986 0.87 0 1.45-0.174 0.58-0.174 1.04-0.348zm8.64 0.348-0.174-1.22h-0.058q-0.522 0.58-1.39 1.04-0.87 0.406-2.09 0.406-1.68 0-2.55-0.87-0.87-0.928-0.87-1.97 0-1.86 1.74-2.78 1.74-0.986 5.04-0.986v-0.174q0-0.638-0.464-1.45-0.406-0.87-2.09-0.87-0.812 0-1.62 0.232-0.754 0.174-1.33 0.522l-0.464-1.22q0.696-0.406 1.62-0.638 0.986-0.232 2.09-0.232 2.55 0 3.36 1.28 0.87 1.28 0.87 2.78v3.77q0 0.638 0.058 1.28 0.058 0.58 0.174 1.1h-1.86zm-0.348-5.1q-1.62 0-3.19 0.406t-1.57 1.86q0 0.87 0.58 1.33 0.58 0.406 1.39 0.406 1.04 0 1.74-0.522 0.696-0.522 0.928-1.16 0.058-0.116 0.058-0.29 0.058-0.174 0.058-0.29zm-57.6-43.3h1.97v11.2h6.49v1.39h-8.46zm20.1 7.94q0 2.55-1.74 3.71-1.74 1.1-3.71 1.1-2.2 0-3.71-1.22-1.51-1.28-1.51-3.42 0-2.26 1.57-3.54 1.57-1.28 3.88-1.28t3.77 1.33q1.45 1.28 1.45 3.3zm-8.64 0.116q0 1.51 0.928 2.49t2.38 0.986q1.39 0 2.32-0.986 0.986-0.986 0.986-2.55 0-1.1-0.754-2.26-0.754-1.16-2.49-1.16-1.8 0-2.61 1.1-0.754 1.1-0.754 2.38zm11.1-1.74q0-0.754 0-1.45t-0.058-1.33h1.74l0.058 1.74h0.058q0.406-0.87 1.22-1.39 0.812-0.58 1.8-0.58 0.174 0 0.29 0.058 0.174 0 0.29 0v1.57q-0.174-0.058-0.348-0.058-0.116 0-0.348 0-1.04 0-1.74 0.58-0.696 0.58-0.87 1.51-0.058 0.174-0.116 0.406 0 0.174 0 0.406v4.81h-1.97zm8.23 2.03q0.058 1.68 1.16 2.43 1.1 0.696 2.61 0.696 1.04 0 1.74-0.116 0.696-0.174 1.28-0.348l0.348 1.16q-0.522 0.174-1.45 0.406-0.87 0.174-2.2 0.174-2.49 0-3.94-1.28-1.39-1.28-1.39-3.3 0-2.03 1.33-3.42 1.39-1.45 3.77-1.45 2.67 0 3.59 1.51t0.928 2.78q0 0.232-0.058 0.464 0 0.174 0 0.29zm5.86-1.16q0-0.812-0.58-1.74-0.522-0.928-2.2-0.928-1.51 0-2.2 0.928-0.696 0.87-0.812 1.74zm4.35-1.22q0-0.696-0.058-1.28 0-0.638 0-1.16h1.68l0.116 1.45h0.058q0.464-0.638 1.28-1.16 0.812-0.522 2.14-0.522 1.16 0 1.91 0.522 0.812 0.522 1.22 1.28 0.29-0.348 0.58-0.638 0.29-0.29 0.638-0.522 0.522-0.29 1.04-0.464 0.58-0.174 1.39-0.174 1.1 0 2.32 0.812 1.28 0.754 1.28 3.13v5.33h-1.97v-5.16q0-1.28-0.58-2.03-0.58-0.754-1.8-0.754-0.812 0-1.45 0.464-0.638 0.464-0.87 1.04-0.058 0.174-0.116 0.406-0.058 0.174-0.058 0.406v5.62h-1.91v-5.45q0-1.04-0.58-1.74-0.58-0.754-1.68-0.754-0.928 0-1.62 0.522-0.638 0.522-0.87 1.16-0.058 0.174-0.116 0.406 0 0.174 0 0.406v5.45h-1.97zm22.9-4.99q0 0.406-0.348 0.696-0.348 0.29-0.928 0.29-0.522 0-0.87-0.29-0.348-0.29-0.348-0.696 0-0.406 0.348-0.696 0.348-0.348 0.928-0.348 0.522 0 0.87 0.348 0.348 0.29 0.348 0.696zm-2.26 11.6v-9.04h2.03v9.04zm-0.87 29.1q0-0.986-0.058-1.8 0-0.812 0-1.57h1.51l0.058 1.74q0.522-0.928 1.33-1.45 0.812-0.522 1.91-0.522 1.68 0 2.78 1.45 1.1 1.45 1.1 3.77 0 2.72-1.28 4.12-1.28 1.33-2.9 1.33-0.87 0-1.62-0.406-0.754-0.406-1.16-1.16h-0.058v5.51h-1.62zm1.62 2.72q0 0.174 0 0.406 0.058 0.174 0.116 0.348 0.232 0.928 0.87 1.57 0.696 0.58 1.62 0.58 1.28 0 1.97-1.1 0.754-1.1 0.754-2.84 0-1.51-0.696-2.61-0.696-1.16-2.03-1.16-0.812 0-1.57 0.638-0.696 0.58-0.928 1.62 0 0.174-0.058 0.406-0.058 0.174-0.058 0.348v1.8zm-39.5-30.7v21.3h46.7v-21.3zm14.8 16.8h-1.97v-6.32h-7.36v6.32h-1.97v-13.6h1.97v5.68h7.36v-5.68h1.97zm7.77 0.232q-2.2 0-3.71-1.33-1.51-1.39-1.51-3.65 0-2.43 1.57-3.77 1.57-1.39 3.83-1.39 2.38 0 3.83 1.39 1.45 1.33 1.45 3.59 0 2.67-1.74 3.94-1.74 1.22-3.71 1.22zm13.2-8.58h-2.84v5.22q0 0.928 0.348 1.45 0.348 0.464 1.16 0.464 0.406 0 0.696-0.058 0.29-0.058 0.464-0.058l0.058 1.28q-0.29 0.116-0.754 0.232-0.406 0.058-0.986 0.058-0.696 0-1.28-0.174-0.522-0.232-0.87-0.58-0.406-0.406-0.58-1.04t-0.174-1.51v-5.28h-1.68v-1.39h1.68v-2.32l1.91-0.464v2.78h2.84v1.39zm9.86-0.348h-2.78v5.33q0 0.928 0.29 1.45 0.348 0.464 1.16 0.464 0.348 0 0.638 0 0.29-0.058 0.464-0.116l0.116 1.39q-0.29 0.058-0.754 0.174-0.406 0.058-0.986 0.058-0.696 0-1.22-0.174-0.522-0.232-0.87-0.58-0.406-0.406-0.58-1.04-0.174-0.696-0.174-1.57v-5.39h-1.68v-1.33h1.68v-2.38l1.91-0.464v2.84h2.78v1.33z" stroke-width="2.23"/>
		</g>
	</g>
</svg>
