<?xml version="1.0" encoding="UTF-8" standalone="no"?>
<svg
   xmlns:dc="http://purl.org/dc/elements/1.1/"
   xmlns:rdf="http://www.w3.org/1999/02/22-rdf-syntax-ns#"
   xmlns:svg="http://www.w3.org/2000/svg"
   xmlns="http://www.w3.org/2000/svg"
   version="1.1"
   viewBox="0 0 26.458333 26.458333"
   height="100"
   width="100">

  <g
     transform="translate(-59.504249,-84.701027)"
     >
    <g
       transform="matrix(0.38177825,0,0,0.38177825,45.831198,61.117552)"
       style="fill:#000000;fill-opacity:1;stroke:none;stroke-width:2.59885836">
      <path
         style="stroke-width:2.59885836"
         d="m 100.31182,114.11263 q 1.48893,0 2.77483,-0.27072 1.28589,-0.27071 1.96268,-0.67678 l -0.60911,-5.0759 q -0.60911,0.33839 -1.35357,0.54143 -0.74447,0.13536 -1.69197,0.13536 -1.962678,0 -3.383929,-1.55661 -1.353572,-1.55661 -1.353572,-4.60215 -0.06768,-2.707139 1.218215,-4.466783 1.285894,-1.759643 3.383926,-1.759643 1.08286,0 1.75965,0.203035 0.74446,0.203036 1.21821,0.473751 l 0.87982,-5.075895 q -0.87982,-0.406072 -1.96268,-0.609108 -1.08285,-0.270714 -2.16571,-0.270714 -4.805181,0 -7.376968,3.451608 -2.504108,3.451609 -2.504108,8.324469 0,5.21125 2.504108,8.25679 2.504109,2.97786 6.700178,2.97786 z m -53.939841,-0.3384 -0.270714,-2.09803 h -0.135357 q -0.812144,1.28589 -2.098037,1.96268 -1.218215,0.6091 -2.639466,0.6091 -2.571786,0 -3.993037,-1.96268 -1.421251,-1.96267 -1.421251,-4.53446 0,-4.1284 2.639466,-6.15875 2.707144,-2.030362 7.106253,-1.962684 v -0.338393 q 0,-0.812143 -0.541429,-1.759643 -0.541429,-0.947501 -2.43643,-0.947501 -1.285893,0 -2.571786,0.473751 -1.218215,0.47375 -2.030358,1.082857 l -0.947501,-4.263752 q 0.812143,-0.609107 2.504108,-1.218214 1.691965,-0.609108 3.925359,-0.609108 4.196074,0 5.752681,2.707144 1.624287,2.707144 1.624287,6.429463 v 7.44465 q 0,1.48893 0,2.91018 0.06768,1.35357 0.203036,2.23339 z M 45.762872,103.7578 q -2.030358,-0.0677 -3.451609,0.67679 -1.353572,0.74446 -1.353572,2.63946 0,1.2859 0.541429,1.96268 0.609107,0.60911 1.488929,0.60911 0.9475,0 1.691965,-0.67679 0.744465,-0.74446 1.015179,-1.75964 0,-0.27071 0,-0.54143 0.06768,-0.33839 0.06768,-0.60911 V 103.7578 Z M 88.265033,69.377072 H 65.254309 q -0.879822,0 -1.48893,0.676786 -0.609107,0.609107 -0.609107,1.488929 v 9.068933 h -2.639465 v 2.707144 h 2.639465 v 24.025906 q 0,0.87982 0.609107,1.5566 0.609108,0.60911 1.48893,0.60911 h 23.010724 q 0.879822,0 1.488929,-0.60911 0.609107,-0.67678 0.609107,-1.5566 V 71.542787 q 0,-0.879822 -0.609107,-1.488929 -0.609107,-0.676786 -1.488929,-0.676786 z M 87.249854,106.39727 H 66.269488 V 72.490288 h 20.980366 z m -7.580003,14.34786 h -1.691965 v 2.70714 h 2.977858 q 0.609107,0 0.9475,-0.40607 0.406072,-0.40607 0.406072,-0.9475 v -3.04554 h -2.639465 z m -19.153044,0 h 6.361788 v 2.70714 h -6.361788 z m 8.730539,0 h 6.361789 v 2.70714 h -6.361789 z m -12.723577,-1.69197 h -2.707144 v 3.04554 q 0,0.54143 0.338393,0.9475 0.406072,0.40607 0.947501,0.40607 h 3.045537 v -2.70714 h -1.624287 z m -2.707144,-16.03982 h 2.639466 v 6.02339 h -2.639466 z m 0,-7.986078 h 2.639466 v 6.023398 h -2.639466 z m 0,-8.053754 h 2.639466 v 6.023396 h -2.639466 z m 0,24.025902 h 2.639466 v 6.09108 h -2.639466 z m 0,-29.034118 v 3.045537 h 2.639466 v -1.691965 h 1.691965 V 80.61172 h -2.977859 q -0.609107,0 -1.015179,0.406071 -0.338393,0.406072 -0.338393,0.947501 z m 25.785547,29.034118 h 2.707144 v 6.09108 H 79.669851 Z M 73.240384,99.291013 h 0.06768 q 0.812143,1.624287 2.098037,2.301077 1.285893,0.6091 2.639465,0.6091 2.707144,0 4.940538,-2.436426 2.301072,-2.43643 2.301072,-7.376968 0,-4.196073 -1.895,-6.700181 -1.827323,-2.504108 -4.602145,-2.504108 -1.691965,0 -2.91018,0.744464 -1.218215,0.676786 -1.895001,1.827322 H 73.91717 V 75.400467 h -4.940538 v 20.980367 q 0,1.488929 -0.06768,3.045537 0,1.488929 -0.06768,2.368749 h 4.196074 z m 0.676786,-7.918396 q 0,-0.270714 0,-0.47375 0.06768,-0.270714 0.06768,-0.541429 0.270715,-1.218215 1.082858,-1.962679 0.812143,-0.812143 1.827322,-0.812143 1.691965,0 2.504108,1.488929 0.879822,1.42125 0.879822,3.519287 0,2.504108 -0.9475,3.85768 -0.879822,1.285894 -2.43643,1.285894 -1.082858,0 -1.895001,-0.744465 -0.744464,-0.812143 -1.015179,-1.895001 0,-0.270714 -0.06768,-0.47375 0,-0.270714 0,-0.541429 z" />
    </g>
  </g>
</svg>
